HIERARCHY
ROOT SpineBase
{
  OFFSET 0.000000 0.000000 0.000000
  CHANNELS 6 Xposition Yposition Zposition Zrotation Xrotation Yrotation
  JOINT SpineMid
  {
    OFFSET 0.000000 31.607809 0.000000
    CHANNELS 3 Zrotation Xrotation Yrotation
    JOINT SpineShoulder
    {
      OFFSET 0.011809 23.580436 -0.867929
      CHANNELS 3 Zrotation Xrotation Yrotation
      JOINT Neck
      {
        OFFSET 0.013749 7.802248 -0.569926
        CHANNELS 3 Zrotation Xrotation Yrotation
        JOINT Head
        {
          OFFSET -5.512565 11.817387 3.538036
          CHANNELS 3 Zrotation Xrotation Yrotation
          End Site
          {
            OFFSET 0 0 0
          }
        }
      }
      JOINT ShoulderLeft
      {
        OFFSET -8.500008 -4.239232 13.192815
        CHANNELS 3 Zrotation Xrotation Yrotation
        JOINT ElbowLeft
        {
          OFFSET -1.750873 -27.293060 7.534284
          CHANNELS 3 Zrotation Xrotation Yrotation
          JOINT WristLeft
          {
            OFFSET 0.133914 -28.556422 2.044536
            CHANNELS 3 Zrotation Xrotation Yrotation
            JOINT HandLeft
            {
              OFFSET -0.146204 -4.778680 0.700055
              CHANNELS 3 Zrotation Xrotation Yrotation
              JOINT HandTipLeft
              {
                OFFSET 1.120178 -4.323729 -0.705369
                CHANNELS 3 Zrotation Xrotation Yrotation
                End Site
                {
                  OFFSET 0 0 0
                }
              }
              JOINT ThumbLeft
              {
                OFFSET 1.945239 -0.800044 -2.140492
                CHANNELS 3 Zrotation Xrotation Yrotation
                End Site
                {
                  OFFSET 0 0 0
                }
              }
            }
          }
        }
      }
      JOINT ShoulderRight
      {
        OFFSET 8.250975 -4.744960 -12.467184
        CHANNELS 3 Zrotation Xrotation Yrotation
        JOINT ElbowRight
        {
          OFFSET 5.937986 -26.939599 -7.112192
          CHANNELS 3 Zrotation Xrotation Yrotation
          JOINT WristRight
          {
            OFFSET -4.013692 -20.238528 -5.457836
            CHANNELS 3 Zrotation Xrotation Yrotation
            JOINT HandRight
            {
              OFFSET -0.785680 -3.299493 1.183065
              CHANNELS 3 Zrotation Xrotation Yrotation
              JOINT HandTipRight
              {
                OFFSET -1.787259 -7.701827 0.395940
                CHANNELS 3 Zrotation Xrotation Yrotation
                End Site
                {
                  OFFSET 0 0 0
                }
              }
              JOINT ThumbRight
              {
                OFFSET -3.568677 4.665135 -3.223761
                CHANNELS 3 Zrotation Xrotation Yrotation
                End Site
                {
                  OFFSET 0 0 0
                }
              }
            }
          }
        }
      }
    }
  }
  JOINT HipLeft
  {
    OFFSET -4.028060 0.549807 1.716397
    CHANNELS 3 Zrotation Xrotation Yrotation
    JOINT KneeLeft
    {
      OFFSET 5.179493 -36.968481 5.324931
      CHANNELS 3 Zrotation Xrotation Yrotation
      JOINT AnkleLeft
      {
        OFFSET 15.896713 -37.509101 7.435252
        CHANNELS 3 Zrotation Xrotation Yrotation
        JOINT FootLeft
        {
          OFFSET -3.910204 -7.480947 -1.931108
          CHANNELS 3 Zrotation Xrotation Yrotation
          End Site
          {
            OFFSET 0 0 0
          }
        }
      }
    }
  }
  JOINT HipRight
  {
    OFFSET 3.603067 1.012508 -9.057738
    CHANNELS 3 Zrotation Xrotation Yrotation
    JOINT KneeRight
    {
      OFFSET 9.496589 -35.833927 -1.181156
      CHANNELS 3 Zrotation Xrotation Yrotation
      JOINT AnkleRight
      {
        OFFSET 9.920380 -36.235508 4.172945
        CHANNELS 3 Zrotation Xrotation Yrotation
        JOINT FootRight
        {
          OFFSET -3.206789 -7.800999 -3.595240
          CHANNELS 3 Zrotation Xrotation Yrotation
          End Site
          {
            OFFSET 0 0 0
          }
        }
      }
    }
  }
}
MOTION
Frames: 5
Frame Time: 0.033333
18.717057 82.841537 344.206589 -0.000000 0.000000 54.690740 -0.000000 0.000000 -54.690740 -0.000000 0.000000 0.000000 -0.000000 0.000000 0.000000 0.000000 0.000000 0.000000 -0.000000 0.000000 0.000000 -0.000000 0.000000 0.000000 -0.000000 0.000000 0.000000 -0.000000 0.000000 0.000000 0.000000 0.000000 0.000000 0.000000 0.000000 0.000000 -0.000000 0.000000 0.000000 -0.000000 0.000000 0.000000 -0.000000 0.000000 0.000000 -0.000000 0.000000 0.000000 0.000000 0.000000 0.000000 0.000000 0.000000 0.000000 -0.000000 0.000000 -54.690740 -0.000000 0.000000 0.000000 -0.000000 0.000000 0.000000 0.000000 0.000000 0.000000 -0.000000 0.000000 -54.690740 -0.000000 0.000000 0.000000 -0.000000 0.000000 0.000000 0.000000 0.000000 0.000000
18.270924 82.695789 344.676111 -0.668585 -0.361227 54.093024 0.684686 -0.329690 -54.093161 -0.000000 0.000000 0.000000 -0.000000 0.000000 0.000000 0.000000 0.000000 0.000000 -0.000000 0.000000 0.000000 -0.000000 0.000000 0.000000 2.474331 20.531949 -0.740802 -3.865142 -17.661314 0.351026 0.000000 0.000000 0.000000 0.000000 0.000000 0.000000 -0.521490 -0.990901 -0.085532 2.739938 -0.557520 -0.224516 -0.011493 1.448932 1.086497 -1.717228 -1.239548 -0.470653 0.000000 0.000000 0.000000 0.000000 0.000000 0.000000 0.684686 -0.329690 -54.093161 -0.000000 0.000000 0.000000 -0.000000 0.000000 0.000000 0.000000 0.000000 0.000000 1.747002 -0.433314 -53.897826 -0.709651 -0.797265 -0.193199 0.640342 1.853743 -1.062060 0.000000 0.000000 0.000000
17.967979 82.590934 345.080022 -1.131525 -0.635389 53.670521 1.182213 -0.535190 -53.671274 -0.000000 0.000000 0.000000 -0.000000 0.000000 0.000000 0.000000 0.000000 0.000000 -0.000000 0.000000 0.000000 0.161504 -1.117968 0.007890 5.032374 37.961214 -2.367042 -7.860483 -31.845673 -1.085700 0.000000 0.000000 0.000000 0.000000 0.000000 0.000000 -0.849398 -1.551893 -0.130019 4.475573 -0.879524 -0.414688 -1.157319 3.061783 1.207063 -2.353223 -2.897310 -0.216224 0.000000 0.000000 0.000000 0.000000 0.000000 0.000000 2.003023 -1.282845 -53.471084 -1.089265 -0.214582 -0.189207 -0.000000 0.000000 0.000000 0.000000 0.000000 0.000000 3.059661 -0.630610 -53.306645 -1.198297 -1.448428 -0.360675 1.060244 3.005875 -1.737850 0.000000 0.000000 0.000000
17.808222 82.526971 345.418321 -1.391316 -0.823744 53.434282 0.674841 -0.261893 -53.470903 0.300664 -0.234157 -0.007423 0.477972 0.672316 0.030939 0.000000 0.000000 0.000000 0.477972 0.672316 0.030939 0.188440 -1.322487 0.009457 7.633673 48.645581 -4.301596 -11.711619 -40.990756 -3.476394 0.000000 0.000000 0.000000 0.000000 0.000000 0.000000 -0.513605 -1.032249 -0.086430 5.244894 -0.959141 -0.554229 -3.245013 4.806604 0.519208 -2.030446 -5.012696 0.662641 0.000000 0.000000 0.000000 0.000000 0.000000 0.000000 2.496816 -1.508879 -53.189673 -1.345958 0.584651 0.127049 0.034993 -0.862015 -0.357557 0.000000 0.000000 0.000000 3.929965 -0.617013 -52.938376 -1.462465 -1.952618 -0.496196 1.252079 3.510238 -2.039002 0.000000 0.000000 0.000000
17.791654 82.503900 345.691008 -1.449565 -0.927203 53.391086 0.712214 -0.228581 -53.431523 0.325065 -0.261360 -0.008232 0.515919 0.753642 0.032981 0.000000 0.000000 0.000000 0.515919 0.753642 0.032981 0.179518 -1.291118 0.008814 9.772944 54.489924 -5.985498 -15.006370 -46.382743 -5.989326 0.000000 0.000000 0.000000 0.000000 0.000000 0.000000 -0.439167 -0.702337 -0.035372 5.068394 -0.792420 -0.638482 -6.274630 6.818354 -0.946896 -0.672360 -7.682697 2.188681 0.000000 0.000000 0.000000 0.000000 0.000000 0.000000 2.641208 -1.471036 -53.143390 -1.379049 0.794245 0.218556 0.682461 -0.645245 -0.845065 0.000000 0.000000 0.000000 4.355009 -0.409153 -52.804645 -1.499948 -2.309492 -0.595384 1.213138 3.390965 -1.970869 0.000000 0.000000 0.000000
